<?xml version="1.0" standalone="no"?>
<!DOCTYPE svg PUBLIC "-//W3C//DTD SVG 20010904//EN"
 "http://www.w3.org/TR/2001/REC-SVG-20010904/DTD/svg10.dtd">
<svg version="1.0" xmlns="http://www.w3.org/2000/svg"
 width="640.000000pt" height="480.000000pt" viewBox="0 0 640.000000 480.000000"
 preserveAspectRatio="xMidYMid meet">

<g transform="translate(0.000000,480.000000) scale(0.100000,-0.100000)"
fill="#000000" stroke="none">
<path d="M0 2400 l0 -2400 3200 0 3200 0 0 2400 0 2400 -3200 0 -3200 0 0
-2400z m1303 1780 c-6 -22 -18 -26 -28 -10 -3 6 -21 10 -38 10 -18 0 -39 5
-47 10 -11 7 5 10 52 10 61 0 66 -1 61 -20z m1437 3 c22 -15 23 -15 17 0 -6
15 4 17 93 17 73 0 100 -3 101 -12 0 -7 2 -33 4 -58 10 -111 37 -563 60 -985
13 -253 28 -513 31 -578 l7 -119 93 -83 c52 -46 127 -102 169 -124 135 -75
230 -162 356 -328 90 -117 144 -178 307 -341 77 -76 152 -142 180 -157 26 -13
103 -36 171 -51 68 -14 132 -29 142 -32 22 -9 139 -195 139 -222 0 -34 -18
-31 -35 4 -9 19 -23 40 -31 47 -8 6 -14 17 -14 24 0 22 -75 75 -107 75 -45 0
-56 -18 -32 -51 22 -31 130 -106 165 -115 32 -8 37 -19 22 -44 -16 -26 -22
-25 -38 5 -15 28 -30 24 -30 -8 -1 -15 -6 -9 -15 18 -8 22 -15 41 -15 43 0 1
-7 2 -15 2 -8 0 -15 5 -15 12 0 6 -3 8 -6 5 -4 -4 -19 2 -33 11 -14 10 -42 26
-61 36 -19 10 -66 47 -105 82 -38 35 -75 64 -82 64 -6 0 -13 5 -15 10 -2 6
-14 7 -34 1 -41 -12 -59 0 -95 64 -30 53 -49 73 -209 215 -46 41 -109 100
-140 130 -98 94 -235 224 -255 242 -17 14 -28 15 -63 7 -37 -8 -49 -6 -92 16
-55 28 -83 60 -135 159 -58 110 -127 205 -214 294 -45 45 -85 82 -90 82 -5 0
-12 14 -16 31 -4 17 -13 33 -21 36 -9 3 -14 22 -14 57 l-1 51 -24 -27 c-13
-16 -28 -28 -32 -28 -10 0 -39 64 -47 103 -4 18 -13 27 -25 27 -19 0 -22 -8
-37 -114 -8 -59 -19 -44 -28 39 -4 33 -12 72 -18 87 -5 15 -7 36 -2 45 17 38
12 49 -23 51 -33 3 -43 -3 -85 -43 l-21 -20 7 67 c7 75 22 125 44 151 19 21 9
22 -23 1 -18 -12 -28 -13 -44 -4 -12 6 -36 8 -55 5 -19 -4 -43 -2 -54 4 -17 9
-23 8 -32 -6 -10 -16 -11 -16 -5 2 17 49 17 52 -15 65 -21 9 -38 10 -47 4 -15
-10 -61 -92 -106 -189 -18 -39 -27 -51 -26 -35 3 49 1 51 -41 44 -36 -6 -40
-5 -40 15 0 11 4 21 10 21 15 0 41 58 45 99 2 20 1 30 -1 23 -10 -21 -43 32
-69 109 -14 40 -25 80 -25 90 0 24 21 29 47 11 24 -15 93 -9 93 8 0 6 4 10 10
10 16 0 61 51 54 61 -3 6 -18 7 -34 4 -25 -5 -27 -3 -27 20 0 36 -17 52 -38
35 -8 -7 -15 -9 -15 -6 0 11 -22 -14 -50 -56 -14 -21 -31 -40 -38 -43 -8 -3
-12 -2 -10 2 2 5 20 41 39 80 24 51 39 73 52 73 14 0 17 -5 12 -20 -4 -11 -2
-20 4 -20 12 0 27 68 17 78 -4 3 -11 0 -16 -8 -6 -10 -10 -11 -10 -3 0 7 -7
10 -15 7 -22 -9 -30 39 -10 69 17 27 30 127 15 127 -9 0 -20 -24 -20 -48 -1
-24 -67 -96 -73 -80 -5 14 -37 -52 -37 -77 0 -8 -4 -15 -8 -15 -4 0 -24 -16
-44 -36 -37 -35 -67 -39 -49 -6 5 9 16 74 25 144 9 70 19 134 22 142 10 27
-25 26 -41 -2 l-16 -27 4 28 c5 31 0 33 -31 11 -20 -14 -22 -14 -22 3 1 53 48
133 78 133 12 0 9 -7 -9 -27 -28 -31 -53 -82 -44 -91 3 -3 5 0 5 6 0 6 9 11
20 11 11 1 29 1 40 2 19 0 26 16 21 49 -1 8 -3 26 -4 40 -2 20 -8 26 -32 28
l-29 4 23 17 c15 11 24 32 28 59 4 33 9 40 18 32 18 -15 25 -1 23 44 -1 42 2
48 22 35 13 -8 13 -10 0 -19 -9 -6 -10 -10 -3 -10 6 0 18 -3 27 -6 11 -4 16
-1 16 10 0 9 6 16 13 16 23 1 -27 30 -52 30 -13 0 -21 3 -18 7 4 3 2 12 -4 19
-8 9 -28 11 -73 7 -43 -4 -66 -2 -70 6 -8 13 -43 -9 -104 -65 -21 -19 -52 -39
-70 -45 -23 -7 -39 -23 -54 -52 -12 -23 -23 -36 -25 -29 -3 7 9 33 26 59 17
25 31 51 31 56 0 6 3 7 7 4 7 -8 53 32 53 46 0 5 -6 4 -14 -2 -8 -7 -17 -8
-20 -3 -9 14 -135 -16 -160 -39 -5 -4 -26 4 -47 18 -30 20 -39 32 -39 54 l0
29 698 0 c630 -1 701 -2 722 -17z m2224 -9 c10 -14 20 -44 23 -67 3 -23 10
-47 15 -54 14 -18 17 -126 4 -143 -9 -13 -9 -13 6 -2 9 8 18 26 20 40 l4 27 8
-29 c7 -22 5 -31 -8 -38 -23 -13 -20 -28 13 -66 27 -31 29 -32 34 -12 4 14 -2
29 -15 42 -11 11 -17 23 -13 26 3 4 10 0 15 -8 7 -12 10 -11 16 5 4 11 16 26
26 33 13 10 18 24 16 45 -2 24 -9 32 -31 38 -20 5 -30 4 -33 -6 -3 -8 -12 -11
-19 -9 -16 7 -8 34 14 51 13 9 18 8 24 -3 12 -20 34 -17 40 6 3 13 0 20 -9 20
-24 0 -12 33 16 42 10 3 6 10 -15 23 -17 10 -35 25 -42 33 -15 18 -30 8 -47
-31 -12 -27 -15 -28 -15 -10 -1 12 4 25 10 29 6 3 9 15 6 25 -4 16 0 19 27 19
18 0 38 -6 44 -12 10 -10 15 -10 20 -1 5 7 34 12 76 12 67 0 68 -1 62 -25 -9
-33 16 -32 43 3 12 14 24 23 27 20 10 -10 -25 -57 -48 -66 -17 -6 -18 -9 -6
-22 7 -8 15 -35 16 -61 1 -38 -3 -50 -19 -62 -14 -9 -23 -29 -26 -56 -4 -36
-2 -42 17 -47 16 -4 20 -11 16 -27 -18 -64 -18 -66 -2 -66 22 0 20 -9 -5 -37
-16 -16 -19 -26 -12 -35 6 -7 14 -24 18 -38 7 -22 6 -23 -9 -11 -9 7 -16 11
-16 8 0 -3 -3 -12 -6 -20 -4 -11 1 -13 19 -10 14 3 28 0 31 -6 7 -11 -5 -15
-38 -11 -11 1 -15 -3 -12 -9 4 -6 2 -11 -3 -11 -6 0 -11 -11 -11 -24 0 -14 -4
-28 -10 -31 -5 -3 -10 -1 -10 6 0 16 -13 3 -16 -16 -1 -8 2 -13 7 -9 5 3 9 -2
9 -11 0 -23 25 -12 26 11 1 30 21 71 39 78 14 5 16 1 10 -27 -12 -57 -16 -66
-36 -72 -25 -8 -24 -27 6 -71 30 -45 33 -94 5 -119 -27 -25 -25 -44 10 -82 33
-37 45 -40 58 -17 7 12 11 2 15 -37 6 -50 5 -56 -23 -83 -16 -17 -31 -28 -34
-25 -7 6 18 79 26 79 5 0 8 7 8 16 0 11 -5 14 -16 10 -9 -4 -24 0 -33 8 -15
13 -16 10 -13 -37 2 -29 -1 -63 -6 -76 -8 -21 -10 -17 -21 37 -6 34 -18 74
-26 89 -8 15 -15 43 -15 61 0 39 -21 40 -27 2 -4 -30 -3 -29 -36 -23 -24 5
-26 7 -11 17 14 11 15 15 3 34 -19 30 -24 28 -48 -18 -16 -31 -19 -46 -11 -60
22 -41 8 -32 -22 14 -18 27 -34 44 -36 38 -4 -13 45 -92 58 -92 5 0 12 -17 15
-37 3 -21 10 -46 16 -55 6 -12 6 -18 -1 -18 -5 0 -10 -12 -10 -27 0 -27 -2
-28 -47 -26 -49 1 -56 11 -30 42 14 16 10 110 -4 127 -5 7 -9 16 -7 20 1 5 -3
19 -10 30 -6 12 -9 24 -6 27 3 3 3 11 -1 18 -5 8 -14 1 -25 -21 -15 -29 -15
-37 -3 -72 16 -48 5 -133 -23 -175 l-18 -28 -7 54 c-4 30 -4 77 1 105 5 30 4
56 -1 62 -5 6 -6 19 -3 29 6 15 3 16 -26 10 -33 -7 -33 -7 -26 26 3 18 14 44
23 58 14 22 17 23 28 7 7 -9 17 -16 21 -15 5 1 16 -1 24 -4 8 -4 29 -3 45 2
l30 8 -30 8 c-53 14 -61 48 -15 64 28 9 29 9 20 -9 -14 -27 -13 -30 15 -30 31
0 32 20 2 57 -54 67 -53 65 -22 53 31 -12 48 -4 25 10 -11 7 -12 10 -2 10 20
0 10 33 -10 36 -18 2 -81 65 -73 72 2 3 10 0 17 -6 7 -5 24 -12 38 -14 33 -4
33 19 -1 54 -14 14 -33 41 -42 60 -14 28 -14 35 -3 43 12 9 11 17 -6 50 -33
67 -33 106 0 73 9 -9 12 -9 12 0 0 6 7 9 15 6 10 -4 13 -2 10 8 -10 25 -42
168 -38 168 2 0 12 -14 23 -32 l19 -32 10 26 c8 21 6 35 -12 68 -19 34 -20 42
-8 49 13 8 13 12 1 26 -13 15 -15 15 -24 -7 -9 -22 -10 -21 -14 12 -2 19 -9
38 -15 42 -7 5 -2 8 13 8 15 -1 32 -11 44 -26z m446 -6 c-6 -29 -2 -37 27 -64
36 -35 41 -60 19 -103 -8 -15 -13 -40 -11 -56 1 -17 -1 -39 -5 -50 -5 -12 -3
-29 2 -39 8 -14 7 -17 -1 -12 -6 4 -3 -7 6 -25 10 -17 22 -30 27 -28 5 2 14
-18 21 -46 14 -53 8 -78 -24 -102 -14 -11 -13 -12 7 -13 15 0 22 -6 22 -21 0
-11 5 -29 11 -40 7 -15 6 -34 -6 -76 -18 -62 -21 -55 57 -137 31 -31 36 -70
13 -100 -14 -18 -15 -16 -15 31 0 51 -26 93 -48 79 -18 -11 -42 6 -42 29 0 13
-4 27 -10 30 -5 3 -10 30 -10 58 0 30 -7 60 -15 71 -17 22 -20 72 -6 80 5 4 5
21 -1 43 -7 32 -17 100 -20 151 -1 7 -12 15 -24 18 -34 9 -56 38 -52 71 l4 28
19 -32 c11 -18 23 -33 26 -33 4 0 10 16 13 36 8 41 -6 64 -34 57 -24 -6 -25
-1 -4 38 14 28 14 32 0 48 -11 12 -16 37 -16 79 l0 62 39 0 c38 0 38 0 31 -32z
m120 -14 c0 -35 6 -54 25 -76 34 -40 31 -61 -3 -23 -15 17 -44 39 -64 49 -42
21 -51 40 -15 31 33 -9 56 19 39 46 -10 16 -9 19 3 19 11 0 15 -12 15 -46z
m-4360 25 c0 -5 -5 -7 -12 -3 -7 4 -8 3 -4 -4 4 -7 25 -12 47 -12 21 0 47 -4
57 -9 9 -5 24 -12 33 -15 26 -7 26 -177 0 -252 -30 -85 -36 -160 -16 -214 27
-74 27 -77 11 -112 -17 -35 -39 -138 -32 -146 3 -2 8 9 12 24 16 71 25 104 30
104 3 0 2 -16 -2 -35 -4 -21 -2 -35 4 -35 18 0 21 -42 23 -310 l1 -265 -30 -3
c-22 -2 -41 -16 -68 -49 -68 -83 -74 -103 -74 -248 -1 -83 -6 -141 -14 -160
-11 -26 -13 -4 -15 170 -1 205 -9 320 -20 310 -3 -4 -9 -82 -12 -173 l-5 -167
-2 176 c-2 142 -5 179 -17 189 -11 9 -12 17 -4 32 7 13 7 30 -2 56 -16 47 -16
161 -1 232 7 30 15 66 18 79 3 13 8 21 11 17 9 -8 43 24 43 41 0 7 5 13 10 13
6 0 10 6 9 13 -1 6 0 19 4 27 3 8 8 30 11 48 5 28 3 32 -15 32 -18 0 -11 10
35 60 58 63 72 94 63 133 -4 12 -6 26 -6 30 0 4 -10 20 -22 35 l-21 27 21 3
c25 4 27 22 6 62 -19 36 -23 37 -35 8 -8 -22 -9 -22 -9 5 -1 15 4 27 10 27 17
0 -24 60 -63 92 -34 27 -38 34 -38 77 0 66 18 101 53 101 15 0 27 -5 27 -11z
m3546 -16 c-10 -10 -19 5 -10 18 6 11 8 11 12 0 2 -7 1 -15 -2 -18z m-3645
-65 c2 -26 0 -50 -4 -54 -4 -4 -7 19 -7 51 0 69 7 70 11 3z m3709 42 c-8 -5
-24 -9 -35 -9 -16 1 -16 2 5 9 35 11 48 11 30 0z m-3210 -14 c0 -3 -4 -8 -10
-11 -5 -3 -10 -1 -10 4 0 6 5 11 10 11 6 0 10 -2 10 -4z m3263 -14 c-4 -8 -15
-12 -29 -9 -15 3 -33 -5 -53 -24 -40 -36 -40 -22 -1 17 31 33 94 45 83 16z
m-3476 -12 l21 -19 -25 -53 c-14 -29 -27 -55 -29 -57 -2 -2 -4 30 -4 72 0 43
4 77 8 77 5 0 18 -9 29 -20z m3560 -12 c-3 -8 -6 -5 -6 6 -1 11 2 17 5 13 3
-3 4 -12 1 -19z m-3147 -13 c0 -7 -7 -18 -16 -23 -8 -5 -21 -26 -29 -48 -12
-34 -14 -36 -15 -12 0 28 36 98 51 98 5 0 9 -7 9 -15z m3295 6 c3 -6 -3 -15
-14 -20 -28 -16 -33 -14 -21 9 12 22 25 26 35 11z m-3490 -77 c-23 -36 -30
-23 -9 18 10 18 19 27 22 20 2 -7 -4 -24 -13 -38z m3305 21 c6 -8 10 -22 8
-32 -3 -14 -8 -12 -26 15 -18 24 -20 32 -9 32 8 0 20 -7 27 -15z m-136 -37
c16 -13 17 -18 6 -18 -9 0 -22 6 -29 13 -12 10 -13 9 -7 -7 6 -16 4 -17 -10
-5 -10 8 -12 15 -5 17 6 2 11 13 12 25 0 15 2 17 6 7 3 -8 15 -23 27 -32z
m-3138 0 c-26 -64 -36 -102 -27 -111 5 -5 18 7 31 27 24 39 39 46 42 19 6 -72
-39 -197 -84 -235 -30 -26 -55 -31 -30 -6 13 13 17 80 5 91 -3 4 -12 -1 -20
-11 -16 -19 -16 -16 13 88 18 63 22 80 23 97 1 11 49 73 57 73 2 0 -2 -15 -10
-32z m144 -18 c0 -11 -4 -20 -10 -20 -5 0 -10 9 -10 20 0 11 5 20 10 20 6 0
10 -9 10 -20z m3776 -46 c3 -19 2 -40 -3 -45 -6 -6 -8 1 -5 19 3 24 0 30 -20
36 -19 5 -20 8 -8 16 24 16 29 12 36 -26z m704 -14 c12 -8 9 -10 -13 -10 -16
0 -26 4 -22 10 8 12 16 12 35 0z m-1492 -100 c7 -19 7 -32 1 -35 -5 -4 -7 -11
-4 -16 4 -5 1 -9 -4 -9 -6 0 -11 3 -12 8 0 4 -2 24 -4 45 -5 44 9 49 23 7z
m-3154 -174 c-24 -32 -34 -33 -27 -3 8 32 24 50 36 38 6 -6 2 -19 -9 -35z
m3770 12 c-3 -13 -11 -30 -16 -38 -8 -12 -8 -11 -4 3 3 10 6 27 6 38 0 10 5
19 11 19 6 0 8 -9 3 -22z m-600 -55 c9 -19 14 -39 10 -44 -8 -13 -44 19 -44
39 0 9 -7 23 -15 32 -14 16 -14 17 8 13 15 -3 30 -18 41 -40z m-2969 -55 c-18
-39 -99 -103 -116 -93 -7 5 11 29 49 66 33 31 64 68 68 81 l8 23 4 -22 c2 -12
-4 -37 -13 -55z m198 -5 c-7 -55 -13 -69 -13 -30 0 14 -4 29 -10 32 -6 4 -5
13 3 25 20 33 27 23 20 -27z m-338 -38 c-20 -17 -42 -25 -65 -24 l-35 1 35 12
c19 7 46 17 60 24 37 16 38 14 5 -13z m300 -32 c-4 -21 -9 -51 -11 -67 -2 -16
-8 -34 -14 -40 -17 -17 -12 77 6 112 21 42 28 40 19 -5z m2843 -63 c3 0 1 -5
-5 -11 -9 -9 -19 -6 -42 10 -41 29 -39 35 5 16 20 -8 39 -15 42 -15z m651 -12
c-8 -14 -14 -18 -17 -10 -4 13 17 46 25 38 3 -2 -1 -15 -8 -28z m-4018 -117
c17 -6 35 -8 40 -6 4 3 27 -32 50 -77 22 -46 50 -96 61 -111 l20 -28 -28 -30
c-15 -16 -35 -29 -45 -29 -9 0 -27 -10 -40 -23 -46 -44 -106 -72 -127 -58 -5
3 -12 109 -16 246 l-6 240 30 -56 c22 -42 37 -60 61 -68z m4094 69 c3 -5 1
-10 -4 -10 -6 0 -11 5 -11 10 0 6 2 10 4 10 3 0 8 -4 11 -10z m860 -28 c-6 -7
-35 18 -35 31 0 5 9 2 20 -8 11 -10 18 -20 15 -23z m-1008 -104 c-3 -7 -5 -2
-5 12 0 14 2 19 5 13 2 -7 2 -19 0 -25z m-169 -27 c2 -6 1 -23 -2 -37 -6 -24
-7 -24 -36 -9 -31 16 -38 33 -20 51 14 14 53 11 58 -5z m265 -76 c-10 -14 -28
-25 -42 -25 -27 0 -24 5 16 31 39 25 47 23 26 -6z m-3428 -54 c-6 -5 -25 10
-25 20 0 5 6 4 14 -3 8 -7 12 -15 11 -17z m3366 -25 c-7 -8 -21 -12 -32 -9
-19 5 -18 7 8 24 29 19 44 9 24 -15z m-121 4 c0 -5 6 -10 14 -10 8 0 29 -12
46 -27 31 -26 33 -26 46 -8 8 10 23 20 34 22 29 4 13 -26 -37 -71 -35 -31 -43
-35 -43 -20 0 11 4 26 10 34 13 21 -7 41 -35 34 -16 -4 -27 1 -39 17 -18 27
-20 39 -6 39 6 0 10 -4 10 -10z m-57 -54 c10 -27 27 -62 38 -78 23 -31 31 -84
22 -137 -5 -31 -7 -32 -17 -14 -6 11 -28 40 -48 64 -27 32 -41 63 -52 109 -8
36 -17 75 -21 88 -7 22 -5 23 26 20 30 -3 35 -8 52 -52z m-253 -60 c0 -19 -41
-39 -54 -26 -8 8 -7 14 7 21 9 6 17 17 17 26 0 13 3 13 15 3 8 -7 15 -18 15
-24z m450 19 c0 -2 -10 -10 -22 -16 -21 -11 -22 -11 -9 4 13 16 31 23 31 12z
m-450 -75 c22 -14 -24 -60 -52 -52 -19 5 -19 6 6 19 17 9 25 20 22 29 -6 16 2
18 24 4z m45 -10 c-3 -5 -12 -10 -18 -10 -7 0 -6 4 3 10 19 12 23 12 15 0z
m405 -40 c0 -5 -8 -10 -17 -10 -15 0 -16 2 -3 10 19 12 20 12 20 0z m-3147
-195 c-3 -9 -8 -14 -10 -11 -3 3 -2 9 2 15 9 16 15 13 8 -4z m37 1 c0 -3 -4
-8 -10 -11 -5 -3 -10 -1 -10 4 0 6 5 11 10 11 6 0 10 -2 10 -4z m62 -101 c3
-14 4 -25 3 -25 -2 0 -10 11 -19 25 -13 20 -14 25 -2 25 7 0 16 -11 18 -25z
m-56 -25 c5 0 11 -6 12 -16 3 -12 0 -14 -10 -8 -7 5 -16 9 -20 9 -5 0 -8 3 -8
8 0 31 0 32 9 19 4 -8 12 -13 17 -12z m-71 -30 c3 -5 1 -10 -4 -10 -6 0 -11 5
-11 10 0 6 2 10 4 10 3 0 8 -4 11 -10z m-1148 -87 c-2 -16 -4 -5 -4 22 0 28 2
40 4 28 2 -13 2 -35 0 -50z m1178 37 c3 -5 1 -10 -4 -10 -6 0 -11 5 -11 10 0
6 2 10 4 10 3 0 8 -4 11 -10z m-60 -20 c3 -5 1 -10 -4 -10 -6 0 -11 5 -11 10
0 6 2 10 4 10 3 0 8 -4 11 -10z m135 -5 c0 -8 -4 -15 -10 -15 -5 0 -7 7 -4 15
4 8 8 15 10 15 2 0 4 -7 4 -15z m-1159 -175 c7 -176 -17 -460 -40 -474 -4 -3
-8 93 -9 212 -2 215 -8 344 -18 412 -5 34 -4 34 30 -20 30 -49 35 -64 37 -130z
m1119 139 c0 -6 -4 -7 -10 -4 -5 3 -10 11 -10 16 0 6 5 7 10 4 6 -3 10 -11 10
-16z m-157 -6 c-4 -11 -3 -14 5 -9 7 4 12 5 12 2 0 -2 3 -13 7 -23 6 -17 6
-17 -10 -1 -9 9 -22 18 -29 20 -6 2 -8 10 -4 16 11 18 26 14 19 -5z m41 1 c5
-14 4 -15 -9 -4 -17 14 -19 20 -6 20 5 0 12 -7 15 -16z m73 -6 c-3 -8 -6 -5
-6 6 -1 11 2 17 5 13 3 -3 4 -12 1 -19z m78 12 c3 -5 -1 -10 -10 -10 -9 0 -13
5 -10 10 3 6 8 10 10 10 2 0 7 -4 10 -10z m375 -90 c54 -56 117 -114 213 -194
33 -28 43 -42 34 -48 -9 -6 -8 -8 3 -8 9 0 27 -8 40 -17 l25 -18 -30 -5 -30
-5 38 -12 c28 -8 35 -8 31 0 -4 7 3 3 14 -8 19 -18 22 -37 31 -200 5 -99 8
-182 5 -184 -9 -9 -13 7 -16 79 -5 82 3 76 -83 70 -40 -2 -40 -2 -9 -9 61 -15
75 -41 22 -41 l-33 -1 40 -14 c22 -8 41 -15 43 -15 1 0 2 -4 2 -10 0 -5 -9
-10 -20 -10 -11 0 -20 -4 -20 -10 0 -5 9 -10 19 -10 11 0 23 -5 27 -11 9 -15
-38 -1 -51 15 -5 7 -27 16 -47 20 -21 4 -41 12 -45 19 -5 7 -29 18 -54 24 -62
16 -208 86 -238 114 -21 20 -23 28 -18 87 4 51 2 69 -10 81 -11 10 -12 16 -4
19 6 2 11 16 11 30 0 21 2 24 10 12 21 -33 10 43 -12 78 -15 24 -17 33 -7 30
8 -3 15 -10 15 -16 3 -25 5 -27 13 -13 12 18 2 51 -13 45 -8 -3 -12 6 -12 26
0 22 4 29 15 28 11 -2 17 7 19 31 2 21 0 31 -7 26 -6 -3 -11 -2 -11 4 0 5 5
11 11 13 9 3 9 9 0 25 -6 12 -11 29 -11 38 0 29 41 6 100 -55z m-554 13 c-7
-7 -26 7 -26 19 0 6 6 6 15 -2 9 -7 13 -15 11 -17z m29 7 c3 -5 1 -10 -4 -10
-6 0 -11 5 -11 10 0 6 2 10 4 10 3 0 8 -4 11 -10z m22 -32 c-3 -7 -5 -2 -5 12
0 14 2 19 5 13 2 -7 2 -19 0 -25z m43 22 c0 9 4 10 13 2 7 -6 28 -9 47 -6 26
4 31 2 20 -5 -8 -6 -10 -11 -5 -12 6 0 1 -4 -10 -8 -11 -5 -25 -4 -32 1 -7 5
-16 7 -22 4 -14 -9 -41 4 -41 21 0 13 3 13 15 3 12 -10 15 -10 15 0z m2595
-34 c23 -49 14 -56 -46 -39 -35 10 -54 12 -58 5 -7 -12 -81 -31 -119 -32 -13
0 -20 4 -17 10 3 6 0 10 -7 10 -9 0 -9 3 2 10 13 9 13 11 0 19 -13 9 -13 11 1
16 28 10 154 33 191 34 33 1 39 -3 53 -33z m-2665 14 c0 -5 -2 -10 -4 -10 -3
0 -8 5 -11 10 -3 6 -1 10 4 10 6 0 11 -4 11 -10z m-53 -66 c-9 -9 -28 6 -21
18 4 6 10 6 17 -1 6 -6 8 -13 4 -17z m28 16 c3 -5 1 -10 -4 -10 -6 0 -11 5
-11 10 0 6 2 10 4 10 3 0 8 -4 11 -10z m2525 -56 c0 -14 -14 -33 -21 -28 -15
9 -10 31 6 31 8 0 15 -1 15 -3z m-37 -24 c3 -11 1 -18 -4 -14 -5 3 -9 12 -9
20 0 20 7 17 13 -6z m-2377 -1 c3 -6 -1 -18 -11 -27 -16 -16 -17 -16 -5 7 11
21 10 23 -4 18 -10 -4 -15 -3 -11 3 8 13 22 13 31 -1z m-51 -9 c3 -5 1 -10 -4
-10 -6 0 -11 5 -11 10 0 6 2 10 4 10 3 0 8 -4 11 -10z m155 0 c0 -5 -2 -10 -4
-10 -3 0 -8 5 -11 10 -3 6 -1 10 4 10 6 0 11 -4 11 -10z m-60 -100 c0 -5 -2
-10 -4 -10 -3 0 -8 5 -11 10 -3 6 -1 10 4 10 6 0 11 -4 11 -10z m-1213 -147
c-3 -10 -5 -4 -5 12 0 17 2 24 5 18 2 -7 2 -21 0 -30z m1483 -8 c0 -8 -2 -15
-4 -15 -2 0 -6 7 -10 15 -3 8 -1 15 4 15 6 0 10 -7 10 -15z m-1473 -172 c-3
-10 -5 -4 -5 12 0 17 2 24 5 18 2 -7 2 -21 0 -30z m362 -82 c-10 -46 -50 -121
-74 -141 -10 -8 -6 7 9 41 13 30 34 76 45 103 25 58 34 57 20 -3z m3038 -33
c-2 -13 -4 -5 -4 17 -1 22 1 32 4 23 2 -10 2 -28 0 -40z m-1862 -28 c3 -5 1
-10 -4 -10 -6 0 -11 5 -11 10 0 6 2 10 4 10 3 0 8 -4 11 -10z m305 -90 c0 -5
-7 -7 -15 -4 -8 4 -15 8 -15 10 0 2 7 4 15 4 8 0 15 -4 15 -10z m1568 -105 c0
-29 0 -29 -8 -5 -4 14 -8 45 -8 70 l0 45 9 -40 c4 -22 8 -53 7 -70z m-1358 91
c0 -3 -4 -8 -10 -11 -5 -3 -10 -1 -10 4 0 6 5 11 10 11 6 0 10 -2 10 -4z m270
-96 c0 -5 -7 -10 -15 -10 -8 0 -15 5 -15 10 0 6 7 10 15 10 8 0 15 -4 15 -10z
m54 -22 c-5 -8 1 -9 17 -5 30 9 127 -20 154 -44 19 -19 19 -19 -17 -19 -20 0
-40 5 -43 10 -4 6 -11 8 -16 4 -5 -3 -8 0 -7 7 2 8 -13 14 -42 17 -25 2 -52
10 -60 18 -10 10 -11 14 -2 14 8 0 10 5 6 12 -4 7 -3 8 5 4 6 -4 8 -12 5 -18z
m257 -73 c37 -15 30 -19 -20 -9 -17 4 -28 10 -25 15 7 11 6 12 45 -6z"/>
<path d="M2516 4175 c-3 -8 -24 -19 -48 -26 -24 -6 -37 -14 -30 -16 7 -3 26 0
42 7 16 7 41 9 55 6 30 -8 31 -2 6 23 -15 15 -21 17 -25 6z"/>
<path d="M2380 4132 c0 -18 -6 -22 -32 -23 -19 -1 -25 -3 -15 -6 29 -7 65 5
63 22 -4 24 -16 30 -16 7z"/>
<path d="M2288 4093 c7 -3 16 -2 19 1 4 3 -2 6 -13 5 -11 0 -14 -3 -6 -6z"/>
<path d="M2235 4080 c-19 -8 -19 -9 2 -9 12 -1 25 4 28 9 7 12 -2 12 -30 0z"/>
<path d="M1880 3746 c0 -14 -5 -28 -11 -31 -6 -5 -4 -11 7 -19 12 -9 15 -22
12 -44 -7 -49 7 -38 20 16 9 39 8 50 -5 64 -8 9 -12 22 -8 27 3 6 1 11 -4 11
-6 0 -11 -11 -11 -24z"/>
<path d="M2111 3459 c-7 -16 -11 -32 -9 -34 8 -8 48 35 48 50 0 26 -25 16 -39
-16z"/>
<path d="M2046 3221 c-8 -12 3 -41 15 -41 5 0 6 -14 2 -30 -4 -25 -3 -29 10
-24 8 3 18 17 22 32 4 15 10 21 12 14 7 -18 33 4 33 28 0 25 -81 43 -94 21z"/>
<path d="M2314 3127 c-16 -14 -23 -26 -17 -30 5 -3 23 7 38 23 34 35 18 40
-21 7z"/>
<path d="M2918 2673 c12 -2 32 -2 45 0 12 2 2 4 -23 4 -25 0 -35 -2 -22 -4z"/>
<path d="M2955 2630 c-26 -7 -24 -8 20 -9 36 0 46 2 35 9 -8 5 -17 9 -20 9 -3
-1 -18 -5 -35 -9z"/>
<path d="M2955 2580 c-15 -7 -10 -9 23 -9 23 -1 42 4 42 9 0 12 -37 12 -65 0z"/>
<path d="M2990 2527 c8 -7 21 -19 28 -27 10 -12 12 -9 12 13 0 23 -4 27 -27
27 -24 -1 -26 -3 -13 -13z"/>
<path d="M5230 4117 c0 -14 20 -37 32 -37 4 0 2 11 -4 25 -12 27 -28 34 -28
12z"/>
<path d="M5143 3915 c-3 -9 -3 -18 0 -21 9 -9 27 6 27 22 0 19 -19 18 -27 -1z"/>
<path d="M5120 3834 c0 -20 -9 -48 -19 -63 -17 -23 -18 -32 -8 -63 6 -20 20
-41 31 -48 17 -11 18 -10 11 12 -9 29 -9 47 -1 131 4 43 3 67 -4 67 -5 0 -10
-16 -10 -36z"/>
<path d="M5018 3855 c0 -6 -2 -14 -3 -20 -2 -5 -3 -16 -4 -22 0 -7 -6 -13 -11
-13 -6 0 -10 6 -9 13 3 23 -1 37 -11 37 -14 0 -13 -57 1 -66 7 -4 9 -22 6 -45
-3 -26 0 -42 9 -50 12 -10 14 -4 14 34 0 26 8 62 17 82 13 27 14 38 5 47 -7 7
-13 8 -14 3z"/>
<path d="M5210 3845 c0 -8 7 -15 15 -15 9 0 12 6 9 15 -4 8 -10 15 -15 15 -5
0 -9 -7 -9 -15z"/>
<path d="M5150 3705 c0 -2 10 -10 23 -16 20 -11 21 -11 8 4 -13 16 -31 23 -31
12z"/>
<path d="M5217 3655 c-4 -8 -2 -17 3 -20 6 -4 10 3 10 14 0 25 -6 27 -13 6z"/>
<path d="M5018 3587 c-4 -39 0 -56 12 -70 17 -18 18 -18 22 12 3 18 1 34 -3
37 -5 2 -4 16 1 29 8 20 6 27 -9 35 -17 9 -19 5 -23 -43z"/>
<path d="M5145 3596 c-8 -19 -15 -39 -15 -44 0 -5 -12 -9 -26 -9 -24 0 -43
-16 -44 -36 0 -15 32 -20 41 -6 7 11 11 12 17 1 12 -18 62 56 62 90 0 41 -19
43 -35 4z"/>
<path d="M5149 3452 c15 -28 10 -97 -6 -97 -24 0 -23 -13 3 -19 15 -4 30 -3
33 2 3 5 16 12 29 16 37 12 29 32 -37 91 -29 26 -32 27 -22 7z"/>
<path d="M5087 3428 c-2 -7 0 -21 5 -30 7 -14 5 -18 -11 -18 -18 0 -35 -23
-24 -33 8 -9 73 34 73 48 0 38 -32 62 -43 33z"/>
<path d="M5041 3114 c0 -11 3 -14 6 -6 3 7 2 16 -1 19 -3 4 -6 -2 -5 -13z"/>
<path d="M1597 3823 c-24 -35 -47 -113 -33 -113 6 0 35 55 59 113 9 20 12 37
8 37 -5 0 -20 -17 -34 -37z"/>
<path d="M5247 2859 c7 -7 15 -10 18 -7 3 3 -2 9 -12 12 -14 6 -15 5 -6 -5z"/>
<path d="M5264 2829 c-3 -6 -2 -15 3 -20 5 -5 9 -1 9 11 0 23 -2 24 -12 9z"/>
<path d="M2620 2150 c0 -5 5 -10 11 -10 5 0 7 5 4 10 -3 6 -8 10 -11 10 -2 0
-4 -4 -4 -10z"/>
<path d="M2990 1910 c0 -5 13 -10 29 -10 16 0 32 -6 34 -12 3 -7 6 -3 6 10 1
19 -4 22 -34 22 -19 0 -35 -4 -35 -10z"/>
<path d="M2965 1860 l-40 -7 45 -3 c25 -1 56 -5 70 -10 21 -6 22 -9 9 -14 -10
-4 -39 -11 -65 -16 -38 -6 -42 -8 -18 -9 17 0 46 -4 63 -7 29 -6 30 -8 14 -20
-10 -7 -38 -14 -63 -15 l-45 -2 40 -4 c22 -3 44 -9 50 -14 5 -5 17 -9 27 -9
17 0 19 7 16 68 -3 67 -3 67 -33 68 -16 1 -48 -2 -70 -6z"/>
</g>
</svg>
